HIERARCHY
ROOT Hips
{
     OFFSET 14.44610 94.54650 6.27449
     CHANNELS 6 Xposition Yposition Zposition Zrotation Xrotation Yrotation
     JOINT Spine
     {
          OFFSET 0.00000 11.89050 -0.00000
          CHANNELS 3 Zrotation Xrotation Yrotation
          JOINT Spine1
          {
               OFFSET 0.00000 25.65740 0.12766
               CHANNELS 3 Zrotation Xrotation Yrotation
               JOINT HEad
               {
                    OFFSET 0.00000 8.73416 0.01134
                    CHANNELS 3 Zrotation Xrotation Yrotation
                    End Site
                    {
                         OFFSET -0.29000 12.77420 2.51395
                    }
               }
               JOINT LeftShoulder1
               {
                    OFFSET 8.99000 -0.36225 -0.22000
                    CHANNELS 3 Zrotation Xrotation Yrotation
                    JOINT LeftArm
                    {
                         OFFSET 10.28270 -0.00338 0.32212
                         CHANNELS 3 Zrotation Xrotation Yrotation
                         JOINT LeftForeArm
                         {
                              OFFSET 32.76690 0.09914 -1.42434
                              CHANNELS 3 Zrotation Xrotation Yrotation
                              JOINT LeftHand
                              {
                                   OFFSET 27.56430 0.08536 1.02216
                                   CHANNELS 3 Zrotation Xrotation Yrotation
                                   End Site
                                   {
                                        OFFSET 16.74430 -0.60000 1.50291
                                   }
                              }
                         }
                    }
               }
               JOINT RightShoulder
               {
                    OFFSET -8.99000 -0.36225 -0.22000
                    CHANNELS 3 Zrotation Xrotation Yrotation
                    JOINT RightArm
                    {
                         OFFSET -10.28270 -0.00338 0.32212
                         CHANNELS 3 Zrotation Xrotation Yrotation
                         JOINT RightForeArm
                         {
                              OFFSET -32.89710 0.09914 -1.42434
                              CHANNELS 3 Zrotation Xrotation Yrotation
                              JOINT RightHand
                              {
                                   OFFSET -27.49210 0.08536 1.02216
                                   CHANNELS 3 Zrotation Xrotation Yrotation
                                   End Site
                                   {
                                        OFFSET -16.63120 -0.60000 1.50291
                                   }
                              }
                         }
                    }
               }
          }
     }
     JOINT LeftUpLeg
     {
          OFFSET 8.94580 -8.66707 0.10165
          CHANNELS 3 Zrotation Xrotation Yrotation
          JOINT LeftLeg
          {
               OFFSET -0.00000 -44.42270 1.37270
               CHANNELS 3 Zrotation Xrotation Yrotation
               JOINT LeftFoot
               {
                    OFFSET -0.25355 -42.09240 -1.46059
                    CHANNELS 3 Zrotation Xrotation Yrotation
                    JOINT LeftToes
                    {
                         OFFSET -0.04000 -4.41509 8.49910
                         CHANNELS 3 Zrotation Xrotation Yrotation
                         End Site
                         {
                              OFFSET 0.08000 -0.04745 9.77979
                         }
                    }
               }
          }
     }
     JOINT RightUpLeg
     {
          OFFSET -8.94580 -8.66707 0.10165
          CHANNELS 3 Zrotation Xrotation Yrotation
          JOINT RightLeg
          {
               OFFSET -0.00000 -44.42270 1.37270
               CHANNELS 3 Zrotation Xrotation Yrotation
               JOINT RightFoot
               {
                    OFFSET 0.25355 -42.09240 -1.46059
                    CHANNELS 3 Zrotation Xrotation Yrotation
                    JOINT RightToes
                    {
                         OFFSET 0.04000 -4.41509 8.49910
                         CHANNELS 3 Zrotation Xrotation Yrotation
                         End Site
                         {
                              OFFSET -0.08000 -0.13745 9.77979
                         }
                    }
               }
          }
     }
}
MOTION
Frames: 21
Frame Time: 0.01667
14.44610 94.54650 6.27449 -2.60681 -12.88260 -12.46350 -5.60688 9.62415 0.30077 -4.68310 18.76080 0.18218 6.72978 -8.51838 1.20742 -0.00000 -0.00000 0.00000 -83.60470 -31.53670 -81.11300 -15.75000 22.64840 -79.85440 15.15370 7.27688 -16.38660 18.00350 1.38963 4.35027 91.82180 -12.61490 76.10070 18.44580 36.39580 97.65680 12.91260 11.64930 10.47670 13.32740 -8.63784 -10.96960 -17.15700 9.77681 48.02930 0.37699 18.43510 -0.21182 2.82383 -27.40310 -65.12700 -23.57570 12.51750 8.61761 42.85210 0.83993 -49.47750 -39.65320 -2.91074 1.58249 8.20264 -45.77250 13.94670 
14.43470 94.42830 6.26901 -2.53708 -12.72130 -12.42460 -5.94254 9.69011 0.41186 -4.62521 18.84610 0.28477 6.80901 -7.89675 1.52238 -0.00000 -0.00000 0.00000 -83.70690 -31.34530 -81.24770 -15.72080 22.76050 -79.38740 15.32010 7.23615 -16.46330 17.63500 1.49376 4.97206 91.71890 -13.09240 76.16940 17.16020 35.96160 98.02040 12.23890 11.60180 10.82490 13.28620 -9.23833 -11.16470 -17.38150 10.54800 47.69870 -0.25870 17.62350 -0.06461 3.29666 -26.34230 -64.26400 -23.83290 12.19270 8.73367 43.37320 0.96653 -49.96940 -39.61720 -3.15967 1.48932 7.92695 -45.10010 13.61060 
14.43170 94.42510 6.28548 -2.58397 -12.71610 -12.34430 -5.85514 9.73471 0.41363 -4.76924 18.94210 0.36981 7.19280 -8.67318 1.31922 -0.00000 -0.00000 0.00000 -82.45730 -30.66490 -80.78930 -15.43920 21.46540 -79.47570 15.12930 7.28045 -16.39380 18.19020 1.57289 5.19066 91.17960 -12.90470 76.13150 16.97770 35.56820 97.91140 11.96060 11.53010 10.50890 13.47180 -9.21808 -11.34070 -17.61490 10.33910 48.27550 -0.02651 18.00510 -0.11783 3.01519 -26.98540 -64.74320 -23.91590 12.18600 8.96899 43.64970 0.92946 -49.69900 -38.64260 -3.47355 1.33347 7.44142 -44.06280 12.83780 
14.40430 94.39270 6.30180 -2.50836 -12.70590 -12.31810 -6.04326 9.83772 0.56844 -5.01440 19.13190 0.68835 7.23961 -8.36350 1.06006 -0.00000 -0.00000 0.00000 -82.17870 -30.24990 -80.86170 -14.73820 21.68340 -79.70980 15.84210 7.11587 -16.63730 18.69890 1.57039 5.02487 91.38720 -13.28080 76.42710 17.11220 35.85980 97.70720 12.43820 11.54830 10.13090 13.34690 -9.26453 -10.84280 -17.41600 10.53790 47.98920 0.18801 18.17310 -0.16696 2.78420 -27.51370 -65.02900 -24.03070 12.22220 8.73013 43.64420 0.98931 -49.95250 -38.63090 -3.07955 1.47398 7.93890 -45.20730 13.55930 
14.36380 94.32490 6.29485 -2.38764 -12.67150 -12.30540 -6.14656 9.88287 0.51740 -5.02927 19.21350 0.54817 6.99084 -8.42918 0.92112 -0.00000 -0.00000 0.00000 -82.43200 -30.49880 -80.84430 -15.08770 21.88520 -79.53930 15.68670 7.17650 -16.40270 18.54930 1.69191 5.65070 91.46920 -13.65650 76.50840 17.44830 35.79470 97.05910 12.53820 11.63610 10.78020 13.30470 -9.44562 -10.91530 -17.55060 10.69070 48.48400 0.54637 18.03500 -0.24591 2.54365 -28.01370 -65.57760 -24.28390 12.20600 8.81617 43.91460 0.83302 -50.25280 -38.96430 -3.00606 1.51562 8.13289 -45.81660 13.68340 
14.34980 94.27300 6.32064 -2.35081 -12.51990 -12.37740 -6.31495 9.85075 0.58491 -5.14972 19.13700 0.67242 7.52386 -8.69793 0.98672 -0.00000 -0.00000 0.00000 -81.79770 -30.25370 -80.52780 -15.29450 21.47980 -79.17130 15.35750 7.22685 -16.48160 19.09520 1.66102 5.33315 91.22550 -13.62040 76.36750 16.71660 35.83170 98.09330 12.78490 11.57320 9.97141 13.36110 -9.75153 -11.14170 -17.74970 10.91950 48.82430 0.40599 17.85350 -0.21283 2.66683 -27.73830 -65.44110 -24.36610 12.17750 8.48686 43.95760 0.68815 -50.71740 -39.56840 -2.74172 1.64048 8.89073 -47.39220 14.74620 
14.29080 94.31630 6.38897 -2.19190 -12.40700 -12.31210 -6.33832 9.85717 0.56040 -5.08556 19.14560 0.60912 7.28716 -8.47308 0.24686 -0.00000 -0.00000 0.00000 -82.88820 -30.50340 -80.81400 -15.29810 22.88860 -79.25820 15.92220 7.14169 -16.33940 18.92080 1.57827 4.99697 91.04150 -13.18590 76.19080 16.66010 35.79590 98.27150 12.08380 11.48330 9.94811 13.15480 -9.81788 -10.99810 -17.60900 11.01820 48.07500 0.00754 17.39890 -0.12173 3.02541 -27.00750 -64.38300 -24.48420 12.20460 8.22749 43.96090 0.65113 -50.42940 -39.39550 -2.70061 1.64705 8.68354 -47.31520 14.17710 
14.28720 94.33570 6.45211 -2.25715 -12.45070 -12.92380 -6.32992 9.81559 0.71386 -5.14547 19.07180 0.91998 7.06287 -7.67493 0.11844 -0.00000 -0.00000 0.00000 -81.26050 -29.84140 -80.10630 -15.16070 21.23040 -79.03980 15.56930 7.16885 -16.62210 19.29110 1.59118 4.95036 91.08170 -13.61150 76.08790 16.72730 35.99430 98.33460 13.15420 11.62310 10.00400 13.31580 -9.52338 -10.63880 -17.72800 11.01620 48.13890 -0.20100 16.93630 -0.07435 3.30065 -26.34680 -64.13860 -24.53240 12.06760 8.61222 43.86550 0.63735 -50.49480 -39.60860 -2.58981 1.69822 8.93995 -47.88550 14.48650 
14.19120 94.45040 6.60863 -1.91177 -12.21330 -13.19630 -6.44678 9.65032 0.71557 -5.29762 18.74180 0.94258 7.29230 -7.52492 -0.16835 -0.00000 -0.00000 0.00000 -80.28720 -29.50450 -79.18990 -14.15360 20.70550 -79.85840 15.58320 7.23395 -16.11590 19.69500 1.62732 5.00153 89.95180 -13.76190 75.63650 16.27610 35.30510 98.71950 12.85040 11.60220 10.14760 13.08980 -9.55011 -10.32310 -17.72120 11.06550 46.87680 -1.92057 15.91830 0.28221 4.56558 -23.15990 -62.50270 -24.74830 11.94040 8.00947 43.63890 0.71026 -50.12330 -40.08480 -2.54726 1.73807 8.65303 -48.34390 13.26830 
14.13840 94.41390 6.73166 -1.94401 -12.10020 -13.95330 -6.24628 9.52597 0.82868 -5.21138 18.52370 1.19100 6.72934 -7.57933 -0.12305 -0.00000 -0.00000 0.00000 -81.29810 -30.08500 -79.08350 -15.65510 21.98900 -79.22530 15.68560 7.16287 -16.50540 19.85390 1.48489 4.31177 89.61830 -13.44510 75.36340 16.08110 35.48900 98.90840 12.67980 11.58780 10.20880 13.76260 -9.43797 -11.10190 -18.90920 10.63450 48.42830 -2.07619 15.35810 0.30735 4.64933 -22.93420 -62.44570 -25.16100 11.68020 8.33491 44.10940 0.68766 -50.17020 -39.11610 -2.38589 1.74729 9.39727 -48.58960 15.25780 
14.10960 94.53970 6.87374 -1.92785 -12.16220 -14.93610 -6.24522 9.44073 0.90297 -5.23333 18.36370 1.32737 6.18493 -6.22746 -1.26889 -0.00000 -0.00000 0.00000 -81.14450 -30.53970 -78.30090 -15.31230 22.45840 -79.51490 16.25660 7.04613 -16.58220 20.26420 1.58675 4.66317 88.41510 -13.91020 75.00610 15.49340 34.84360 99.38030 12.61960 11.65960 10.88920 13.72640 -8.79193 -9.77644 -18.56550 10.63970 47.30350 -2.67450 14.79780 0.41736 5.10040 -21.69120 -61.44230 -25.52860 11.60030 8.89885 44.26170 0.54033 -49.42840 -37.80560 -3.04700 1.44810 8.19034 -45.77990 13.90060 
14.06050 94.59270 7.09672 -1.82030 -12.14110 -16.01020 -6.07128 9.42049 0.93660 -5.12683 18.35430 1.40499 5.75063 -6.64491 -1.40080 -0.00000 -0.00000 0.00000 -80.61870 -29.97450 -77.64410 -14.48910 21.20650 -80.02230 16.03620 7.14285 -16.17870 20.21870 1.48462 4.21952 87.66680 -12.93390 74.82560 15.08250 34.13860 99.56440 12.92090 11.63900 10.38220 13.86640 -8.31014 -9.35264 -18.79240 10.41720 48.16590 -2.37833 14.28010 0.35200 5.01368 -21.93850 -62.03050 -25.89230 11.58040 8.32113 44.06700 0.78697 -48.93280 -38.01290 -3.02402 1.46559 8.37700 -47.17730 13.34620 
14.08090 94.54400 7.32173 -2.03004 -11.95690 -17.59820 -6.14666 9.36765 1.09991 -5.08228 18.26110 1.67457 5.04281 -5.52900 -2.26273 -0.00000 -0.00000 0.00000 -81.16840 -30.78520 -77.61390 -15.54200 22.14990 -79.83960 16.37170 7.14882 -15.70060 19.61470 1.45708 4.24570 88.05220 -12.90270 74.87620 14.93040 33.64380 100.03200 14.09280 11.69100 9.62150 14.47960 -8.17167 -9.30910 -19.49150 10.72080 49.64280 -2.74465 13.38540 0.40590 5.13611 -21.60290 -62.31080 -26.34250 11.32360 8.98662 44.40660 0.19980 -49.12950 -37.70130 -2.06334 1.78600 9.07339 -47.91960 14.85770 
13.96260 94.78070 7.55293 -1.66624 -11.89210 -18.79660 -5.90281 9.30651 0.91584 -5.34562 18.19340 1.43902 5.76631 -8.02463 -3.44092 -0.00000 -0.00000 0.00000 -81.62380 -31.67700 -77.28310 -16.16930 22.69660 -79.92140 16.39410 7.08971 -16.09160 18.97240 1.45690 4.41153 86.87380 -11.86920 74.24660 15.12120 31.46350 100.43400 15.97560 11.83160 9.00985 14.07270 -7.21724 -8.08966 -18.89830 9.89427 48.81000 -2.81514 12.98190 0.41137 5.56152 -20.38790 -61.53310 -26.75640 11.08100 8.70734 43.98970 0.52474 -48.85560 -37.50480 -2.45306 1.64027 8.60564 -47.83660 13.52160 
14.00060 94.69380 7.70945 -1.64587 -12.03850 -20.35970 -6.58212 9.42298 0.98142 -5.37580 18.40530 1.31151 5.54355 -7.87146 -3.18516 -0.00000 -0.00000 0.00000 -81.08760 -31.62330 -76.96940 -15.36390 22.04380 -80.28130 16.70520 7.04167 -16.03170 19.36980 1.43763 4.21834 89.97060 -13.75510 76.02200 15.96470 35.85040 98.99970 14.17970 11.68400 9.48615 13.76320 -7.11713 -7.47193 -18.73660 11.10020 48.42980 -3.68311 11.70060 0.53390 5.93904 -19.09530 -59.08100 -27.49260 11.29130 8.63326 44.14300 0.03430 -50.00170 -38.42710 -2.73743 1.58643 8.94257 -48.69180 13.84940 
13.93870 94.90760 8.00571 -1.89564 -11.81920 -22.17320 -5.63300 9.30952 0.70332 -5.19174 18.27510 0.99968 4.49847 -7.02900 -3.81460 -0.00000 -0.00000 0.00000 -83.49910 -33.63940 -77.39210 -17.25880 24.85050 -79.94370 17.48350 6.90942 -15.97010 18.85940 1.43894 4.35694 89.93490 -13.45660 76.16640 16.27240 35.81860 98.81590 14.58030 11.68920 9.16327 14.37220 -6.05895 -8.20222 -19.31700 9.56235 50.52060 -2.78578 11.45550 0.37843 5.73632 -19.67420 -58.48160 -27.57410 10.90730 9.16740 44.02630 0.10418 -50.14550 -36.41260 -4.00490 1.06302 7.12798 -44.66900 11.26520 
13.81850 94.65310 8.17958 -1.92647 -11.83860 -24.07140 -6.33191 9.31558 0.79620 -5.12552 18.27110 0.88421 4.29237 -7.14722 -4.04141 -0.00000 -0.00000 0.00000 -81.72400 -32.93320 -76.45260 -15.48930 23.08380 -81.13030 17.59520 6.90341 -15.87620 19.23680 1.46587 4.38357 89.74290 -13.91720 76.18150 17.16670 36.31990 98.38370 14.35320 11.68350 9.32331 14.42840 -6.38126 -8.67183 -19.67570 10.98340 52.82670 -3.10405 11.14150 0.42476 5.29389 -21.03490 -57.91600 -28.36620 10.73330 9.76710 44.64390 -0.47152 -52.99970 -39.20890 -5.37804 0.66307 7.73941 -46.12580 12.16260 
13.76040 94.84840 8.40837 -2.44369 -11.80660 -26.10030 -5.72733 9.14791 0.50904 -5.23453 18.01420 0.49948 4.87629 -6.21842 -4.44441 -0.00000 -0.00000 0.00000 -86.79970 -36.95740 -77.89410 -18.38520 30.21960 -80.01230 19.20320 6.61410 -15.86400 20.97080 1.83116 5.53901 87.86960 -14.59440 76.01350 16.44140 35.63690 98.54280 14.17360 11.69660 9.58846 15.15410 -5.39826 -10.55120 -20.55620 9.95092 55.36840 -3.26159 9.91642 0.42327 5.92398 -18.83180 -56.03650 -28.31620 10.87160 9.40777 44.30030 -0.33432 -53.62330 -38.37330 -5.82896 0.48323 7.99405 -45.93430 13.13650 
13.55830 94.71760 8.50212 -2.47876 -12.06500 -28.34940 -6.50619 9.19963 0.63921 -5.23548 18.11220 0.44627 4.69809 -5.70784 -5.70683 -0.00000 -0.00000 0.00000 -81.53300 -34.01550 -75.36140 -16.29230 23.98190 -81.69590 17.13470 7.05678 -15.40050 20.64340 1.59241 4.58942 88.23410 -14.03130 75.76470 17.08330 35.67600 98.39170 14.62990 11.71640 9.32256 14.87900 -5.13800 -10.33710 -20.51820 11.32320 56.11550 -4.62214 8.03894 0.56747 6.71493 -15.74840 -54.38450 -29.12320 10.93510 9.40453 44.40900 -0.68713 -56.41700 -40.16500 -5.30767 0.71119 10.16690 -50.00340 16.26690 
13.33390 94.96590 8.72958 -3.63882 -11.66360 -31.12010 -5.63617 9.26538 0.59546 -4.45767 18.29630 0.44476 4.18918 -5.44241 -6.34592 -0.00000 -0.00000 0.00000 -83.00500 -34.83260 -75.67540 -16.39660 25.44870 -81.90730 17.90150 6.89912 -15.54580 19.09070 1.30561 3.67234 89.47120 -13.20600 75.95990 17.53910 35.77810 97.87140 14.59030 11.74970 9.60731 16.28820 -3.93017 -10.49220 -20.91660 10.78480 57.64960 -4.37853 7.49827 0.51693 6.61614 -15.65320 -52.41070 -28.32110 10.62210 10.28970 44.29500 -0.75108 -55.76360 -37.71930 -6.90105 0.09506 7.22026 -43.97260 12.14090 
13.01130 94.72960 8.76816 -3.33152 -11.63590 -33.19910 -6.24622 9.15895 0.31610 -4.38511 18.09830 -0.36136 4.60997 -5.87385 -6.27017 -0.00000 -0.00000 0.00000 -87.08930 -38.16030 -76.89110 -18.95930 30.58020 -81.62620 18.73200 6.83964 -15.00050 19.00990 1.32684 3.79096 89.16080 -12.87000 75.54740 17.80120 35.64520 97.56530 14.00340 11.73650 10.05960 16.06190 -4.31877 -11.70000 -21.48120 11.86860 60.34840 -5.13098 6.62991 0.58292 6.61175 -15.34760 -51.17020 -29.35420 10.22440 9.54141 44.92170 -0.50846 -57.34010 -39.23660 -7.47245 -0.10308 7.84052 -45.18690 13.24950 
